<svg width="24" height="18" viewBox="0 0 24 18" fill="none" xmlns="http://www.w3.org/2000/svg">
<g filter="url(#filter0_d_616_165)">
<path d="M17.9465 0.34977C18.1728 0.125697 18.4784 0 18.7969 0C19.1153 0 19.4209 0.125697 19.6472 0.34977C19.759 0.459802 19.8477 0.590958 19.9082 0.735605C19.9688 0.880251 20 1.0355 20 1.19231C20 1.34913 19.9688 1.50437 19.9082 1.64902C19.8477 1.79367 19.759 1.92482 19.6472 2.03485L12.8512 8.6952C12.6244 8.91896 12.3186 9.04442 12 9.04442C11.6814 9.04442 11.3756 8.91896 11.1488 8.6952L4.35278 2.03485C4.24105 1.92482 4.15232 1.79367 4.09175 1.64902C4.03119 1.50437 4 1.34913 4 1.19231C4 1.0355 4.03119 0.880251 4.09175 0.735605C4.15232 0.590958 4.24105 0.459802 4.35278 0.34977C4.57908 0.125697 4.88468 0 5.20315 0C5.52161 0 5.82721 0.125697 6.05351 0.34977L12.0026 5.81195L17.9465 0.34977Z" fill="#BFD2F8"/>
</g>
<defs>
<filter id="filter0_d_616_165" x="0" y="0" width="24" height="17.0444" filterUnits="userSpaceOnUse" color-interpolation-filters="sRGB">
<feFlood flood-opacity="0" result="BackgroundImageFix"/>
<feColorMatrix in="SourceAlpha" type="matrix" values="0 0 0 0 0 0 0 0 0 0 0 0 0 0 0 0 0 0 127 0" result="hardAlpha"/>
<feOffset dy="4"/>
<feGaussianBlur stdDeviation="2"/>
<feComposite in2="hardAlpha" operator="out"/>
<feColorMatrix type="matrix" values="0 0 0 0 0 0 0 0 0 0 0 0 0 0 0 0 0 0 0.25 0"/>
<feBlend mode="normal" in2="BackgroundImageFix" result="effect1_dropShadow_616_165"/>
<feBlend mode="normal" in="SourceGraphic" in2="effect1_dropShadow_616_165" result="shape"/>
</filter>
</defs>
</svg>
