<!-- Generated by IcoMoon.io -->
<svg version="1.1" xmlns="http://www.w3.org/2000/svg" width="32" height="32" viewBox="0 0 32 32">
<title>calendar</title>
<path fill="none" stroke-linejoin="round" stroke-linecap="round" stroke-miterlimit="4" stroke-width="1.2308" stroke="#000" d="M30.423 0.615h-28.846c-0.531 0-0.962 0.43-0.962 0.962v28.846c0 0.531 0.431 0.962 0.962 0.962h28.846c0.531 0 0.962-0.431 0.962-0.962v-28.846c0-0.531-0.431-0.962-0.962-0.962z"></path>
<path fill="none" stroke-linejoin="round" stroke-linecap="round" stroke-miterlimit="4" stroke-width="1.2308" stroke="#000" d="M9.846 9.846h-6.154v6.154h6.154v-6.154z"></path>
<path fill="none" stroke-linejoin="round" stroke-linecap="round" stroke-miterlimit="4" stroke-width="1.2308" stroke="#000" d="M16 9.846h-6.154v6.154h6.154v-6.154z"></path>
<path fill="none" stroke-linejoin="round" stroke-linecap="round" stroke-miterlimit="4" stroke-width="1.2308" stroke="#000" d="M22.154 9.846h-6.154v6.154h6.154v-6.154z"></path>
<path fill="none" stroke-linejoin="round" stroke-linecap="round" stroke-miterlimit="4" stroke-width="1.2308" stroke="#000" d="M28.308 9.846h-6.154v6.154h6.154v-6.154z"></path>
<path fill="none" stroke-linejoin="round" stroke-linecap="round" stroke-miterlimit="4" stroke-width="1.2308" stroke="#000" d="M28.308 16h-6.154v6.154h6.154v-6.154z"></path>
<path fill="none" stroke-linejoin="round" stroke-linecap="round" stroke-miterlimit="4" stroke-width="1.2308" stroke="#000" d="M22.154 16h-6.154v6.154h6.154v-6.154z"></path>
<path fill="none" stroke-linejoin="round" stroke-linecap="round" stroke-miterlimit="4" stroke-width="1.2308" stroke="#000" d="M16 16h-6.154v6.154h6.154v-6.154z"></path>
<path fill="none" stroke-linejoin="round" stroke-linecap="round" stroke-miterlimit="4" stroke-width="1.2308" stroke="#000" d="M9.846 16h-6.154v6.154h6.154v-6.154z"></path>
<path fill="none" stroke-linejoin="round" stroke-linecap="round" stroke-miterlimit="4" stroke-width="1.2308" stroke="#000" d="M9.846 22.154h-6.154v6.154h6.154v-6.154z"></path>
<path fill="none" stroke-linejoin="round" stroke-linecap="round" stroke-miterlimit="4" stroke-width="1.2308" stroke="#000" d="M16 22.154h-6.154v6.154h6.154v-6.154z"></path>
<path fill="none" stroke-linejoin="round" stroke-linecap="round" stroke-miterlimit="4" stroke-width="1.2308" stroke="#000" d="M22.154 22.154h-6.154v6.154h6.154v-6.154z"></path>
<path fill="none" stroke-linejoin="round" stroke-linecap="round" stroke-miterlimit="4" stroke-width="1.2308" stroke="#000" d="M6.77 0.615h3.077v1.538c0 0.85-0.691 1.538-1.538 1.538-0.85 0-1.538-0.691-1.538-1.538v-1.538z"></path>
<path fill="none" stroke-linejoin="round" stroke-linecap="round" stroke-miterlimit="4" stroke-width="1.2308" stroke="#000" d="M22.154 0.615h3.077v1.538c0 0.85-0.691 1.538-1.538 1.538-0.85 0-1.538-0.691-1.538-1.538v-1.538z"></path>
</svg>
