<!-- Generated by IcoMoon.io -->
<svg version="1.1" xmlns="http://www.w3.org/2000/svg" width="26" height="32" viewBox="0 0 26 32">
<title>dropper</title>
<path d="M20.797 6.4h-3.2v-3.2h3.2c0.424 0 0.831-0.169 1.131-0.469s0.469-0.707 0.469-1.131c0-0.424-0.169-0.831-0.469-1.131s-0.707-0.469-1.131-0.469h-12.8c-2.122 0-4.157 0.843-5.657 2.343s-2.343 3.535-2.343 5.657v22.4c0 0.424 0.169 0.831 0.469 1.131s0.707 0.469 1.131 0.469c0.424 0 0.831-0.169 1.131-0.469s0.469-0.707 0.469-1.131v-22.4c0-1.273 0.506-2.494 1.406-3.394s2.121-1.406 3.394-1.406h6.4v3.2h-3.2c-1.273 0-2.494 0.506-3.394 1.406s-1.406 2.121-1.406 3.394v7.888c-0 0.792 0.195 1.571 0.569 2.269s0.915 1.292 1.575 1.731l2.656 1.776v0.736c0 0.849 0.337 1.663 0.937 2.263s1.414 0.937 2.263 0.937v1.6c0 0.424 0.169 0.831 0.469 1.131s0.707 0.469 1.131 0.469c0.424 0 0.831-0.169 1.131-0.469s0.469-0.707 0.469-1.131v-1.6c0.849 0 1.663-0.337 2.263-0.937s0.937-1.414 0.937-2.263v-0.736l2.656-1.776c0.66-0.438 1.2-1.033 1.575-1.731s0.57-1.478 0.569-2.269v-7.888c0-1.273-0.506-2.494-1.406-3.394s-2.121-1.406-3.394-1.406zM19.197 14.4h3.2v1.6h-1.6c-0.424 0-0.831 0.169-1.131 0.469s-0.469 0.707-0.469 1.131c0 0.424 0.169 0.831 0.469 1.131s0.707 0.469 1.131 0.469h1.6c-0.017 0.243-0.089 0.479-0.211 0.689s-0.29 0.391-0.493 0.527l-3.36 2.256c-0.223 0.143-0.407 0.339-0.536 0.571s-0.197 0.492-0.2 0.757v1.6h-3.2v-1.6c-0.001-0.264-0.068-0.523-0.193-0.754s-0.306-0.429-0.527-0.574l-3.36-2.256c-0.22-0.145-0.401-0.342-0.527-0.574s-0.192-0.491-0.193-0.754v-7.888c0-0.424 0.169-0.831 0.469-1.131s0.707-0.469 1.131-0.469h9.6c0.424 0 0.831 0.169 1.131 0.469s0.469 0.707 0.469 1.131h-3.2c-0.424 0-0.831 0.169-1.131 0.469s-0.469 0.707-0.469 1.131c0 0.424 0.169 0.831 0.469 1.131s0.707 0.469 1.131 0.469z"></path>
</svg>
