<!-- Generated by IcoMoon.io -->
<svg version="1.1" xmlns="http://www.w3.org/2000/svg" width="44" height="32" viewBox="0 0 44 32">
<title>Group-198</title>
<path fill="none" stroke-linejoin="round" stroke-linecap="round" stroke-miterlimit="4" stroke-width="3.6923" stroke="#000" d="M22.126 3.341c-6.852 0-13.88 3.966-19.413 11.897-0.158 0.229-0.244 0.499-0.249 0.777s0.074 0.551 0.225 0.785c4.251 6.655 11.185 11.859 19.437 11.859 8.161 0 15.238-5.22 19.497-11.89 0.147-0.229 0.226-0.496 0.226-0.768s-0.078-0.539-0.226-0.768c-4.269-6.593-11.397-11.892-19.497-11.892z"></path>
<path fill="none" stroke-linejoin="miter" stroke-linecap="butt" stroke-miterlimit="10" stroke-width="3.6923" stroke="#000" d="M22.155 23.033c3.884 0 7.033-3.149 7.033-7.033s-3.149-7.033-7.033-7.033c-3.884 0-7.033 3.149-7.033 7.033s3.149 7.033 7.033 7.033z"></path>
</svg>
