<!-- Generated by IcoMoon.io -->
<svg version="1.1" xmlns="http://www.w3.org/2000/svg" width="36" height="32" viewBox="0 0 36 32">
<title>heart-puls</title>
<path d="M6.152 15.991h-0.694l12.732 12.779 10.456-10.494h3.218l-13.674 13.724-15.381-15.42c-0.415-0.416-0.782-0.866-1.102-1.347s-0.599-0.991-0.836-1.526h4.321l5.032-5.033 7.966 7.978 5.69-5.693 2.756 2.748h6.313c0.379-0.607 0.67-1.249 0.871-1.928s0.302-1.374 0.302-2.088c0-1.035-0.193-1.999-0.578-2.891s-0.913-1.669-1.583-2.329c-0.67-0.66-1.452-1.178-2.347-1.553s-1.858-0.562-2.89-0.562c-0.996 0-1.879 0.158-2.65 0.473s-1.482 0.729-2.134 1.24c-0.652 0.512-1.277 1.092-1.876 1.74s-1.224 1.306-1.876 1.972c-0.64-0.643-1.262-1.291-1.867-1.945s-1.236-1.243-1.894-1.767c-0.658-0.523-1.375-0.952-2.152-1.285s-1.651-0.5-2.623-0.5c-1.020 0-1.977 0.193-2.872 0.58s-1.677 0.916-2.347 1.588c-0.67 0.672-1.197 1.458-1.583 2.356s-0.578 1.859-0.578 2.882c0 0.559 0.065 1.136 0.196 1.731h-2.329c-0.059-0.286-0.098-0.571-0.116-0.857s-0.027-0.571-0.027-0.857c0-1.345 0.252-2.606 0.756-3.784s1.191-2.207 2.063-3.088c0.871-0.88 1.894-1.574 3.067-2.079s2.43-0.758 3.77-0.758c0.984 0 1.861 0.113 2.632 0.339s1.485 0.538 2.143 0.937c0.658 0.399 1.286 0.877 1.885 1.437s1.224 1.172 1.876 1.838c0.652-0.666 1.277-1.279 1.876-1.838s1.227-1.038 1.885-1.437c0.658-0.399 1.372-0.711 2.143-0.937s1.648-0.339 2.632-0.339c1.328 0 2.578 0.253 3.752 0.758s2.196 1.193 3.067 2.061c0.871 0.869 1.559 1.892 2.063 3.070s0.756 2.433 0.756 3.766c0 1.154-0.202 2.276-0.605 3.364s-0.978 2.079-1.725 2.972h-8.357l-1.796-1.82-5.69 5.729-7.966-8.013-4.072 4.105z"></path>
</svg>
