<!-- Generated by IcoMoon.io -->
<svg version="1.1" xmlns="http://www.w3.org/2000/svg" width="37" height="32" viewBox="0 0 37 32">
<title>heart-plus</title>
<path d="M21.982 14.197h-1.83v-1.813c0-0.481-0.193-0.942-0.536-1.282s-0.809-0.531-1.294-0.531c-0.485 0-0.951 0.191-1.294 0.531s-0.536 0.801-0.536 1.282v1.813h-1.83c-0.486 0-0.951 0.191-1.294 0.531s-0.536 0.801-0.536 1.282 0.193 0.942 0.536 1.282c0.343 0.34 0.809 0.531 1.294 0.531h1.83v1.813c0 0.481 0.193 0.942 0.536 1.282s0.809 0.531 1.294 0.531 0.951-0.191 1.294-0.531c0.343-0.34 0.536-0.801 0.536-1.282v-1.813h1.83c0.485 0 0.951-0.191 1.294-0.531s0.536-0.801 0.536-1.282-0.193-0.942-0.536-1.282c-0.343-0.34-0.809-0.531-1.294-0.531zM33.257 3.317c-1.952-1.914-4.53-3.073-7.268-3.269s-5.458 0.584-7.668 2.2c-2.329-1.716-5.228-2.494-8.112-2.178s-5.541 1.704-7.435 3.883c-1.893 2.179-2.883 4.989-2.77 7.862s1.322 5.597 3.381 7.624l10.982 10.971c1.030 1.019 2.425 1.591 3.88 1.591s2.851-0.572 3.88-1.591l10.982-10.971c1.082-1.047 1.944-2.295 2.537-3.674s0.905-2.859 0.919-4.357c0.014-1.498-0.272-2.984-0.84-4.373s-1.407-2.652-2.47-3.718zM30.676 16.845l-10.982 10.88c-0.17 0.17-0.373 0.305-0.596 0.397s-0.462 0.14-0.704 0.14c-0.242 0-0.481-0.047-0.704-0.14s-0.425-0.227-0.596-0.397l-10.982-10.88c-1.435-1.454-2.239-3.406-2.239-5.44s0.804-3.986 2.239-5.44c1.463-1.431 3.436-2.233 5.491-2.233s4.028 0.802 5.491 2.233c0.17 0.17 0.373 0.305 0.596 0.397s0.462 0.139 0.704 0.139c0.242 0 0.481-0.047 0.704-0.139s0.425-0.227 0.596-0.397c1.463-1.431 3.436-2.233 5.491-2.233s4.028 0.802 5.491 2.233c1.446 1.455 2.257 3.416 2.257 5.458s-0.811 4.003-2.257 5.458v-0.036z"></path>
</svg>
