<!-- Generated by IcoMoon.io -->
<svg version="1.1" xmlns="http://www.w3.org/2000/svg" width="32" height="32" viewBox="0 0 32 32">
<title>medical</title>
<path d="M11.757 15.057c-0.125 0.124-0.224 0.271-0.292 0.434s-0.103 0.337-0.103 0.513c0 0.176 0.035 0.35 0.103 0.513s0.167 0.31 0.292 0.434c0.25 0.248 0.588 0.388 0.94 0.388s0.69-0.139 0.94-0.388c0.125-0.124 0.224-0.271 0.292-0.434s0.102-0.337 0.102-0.513c0-0.176-0.035-0.35-0.102-0.513s-0.167-0.31-0.292-0.434c-0.25-0.248-0.588-0.388-0.94-0.388s-0.69 0.139-0.94 0.388zM15.050 18.363c-0.248 0.25-0.388 0.588-0.388 0.94s0.139 0.69 0.388 0.94c0.124 0.125 0.271 0.224 0.434 0.292s0.337 0.102 0.513 0.102c0.176 0 0.35-0.035 0.513-0.102s0.31-0.167 0.434-0.292c0.248-0.25 0.388-0.588 0.388-0.94s-0.139-0.69-0.388-0.94c-0.124-0.125-0.271-0.224-0.434-0.292s-0.337-0.103-0.513-0.103c-0.176 0-0.35 0.035-0.513 0.103s-0.31 0.167-0.434 0.292zM27.050 5.030c-1.45-1.462-3.409-2.309-5.468-2.364s-4.059 0.687-5.585 2.070c-1.519-1.367-3.503-2.101-5.546-2.052s-3.99 0.879-5.44 2.318c-1.441 1.453-2.271 3.403-2.318 5.45s0.692 4.032 2.065 5.55c-1.026 1.148-1.7 2.567-1.94 4.088s-0.036 3.078 0.588 4.486c0.624 1.408 1.64 2.605 2.928 3.45s2.791 1.299 4.331 1.31c1.974 0.002 3.877-0.735 5.333-2.067 1.52 1.371 3.507 2.108 5.553 2.058s3.995-0.882 5.447-2.325c1.439-1.455 2.267-3.406 2.311-5.452s-0.697-4.032-2.071-5.548c1.375-1.516 2.116-3.502 2.071-5.548s-0.872-3.997-2.311-5.452l0.053 0.027zM25.104 6.897c0.927 0.954 1.465 2.22 1.506 3.549s-0.415 2.627-1.28 3.637l-7.413-7.413c1.019-0.846 2.313-1.289 3.636-1.248s2.587 0.566 3.55 1.474zM6.89 25.11c-0.927-0.954-1.465-2.22-1.506-3.549s0.415-2.627 1.28-3.637l7.467 7.467c-1.030 0.851-2.338 1.292-3.673 1.241s-2.605-0.593-3.567-1.521zM25.104 25.11c-1.012 0.968-2.359 1.509-3.76 1.509s-2.748-0.54-3.76-1.509l-10.667-10.667c-0.993-0.999-1.551-2.351-1.551-3.76s0.558-2.761 1.551-3.76c0.999-0.993 2.351-1.551 3.76-1.551s2.761 0.558 3.76 1.551l10.667 10.667c0.993 0.999 1.551 2.351 1.551 3.76s-0.558 2.761-1.551 3.76zM18.357 15.057c-0.125 0.124-0.224 0.271-0.292 0.434s-0.103 0.337-0.103 0.513c0 0.176 0.035 0.35 0.103 0.513s0.167 0.31 0.292 0.434c0.25 0.248 0.588 0.388 0.94 0.388s0.69-0.139 0.94-0.388c0.125-0.124 0.224-0.271 0.292-0.434s0.102-0.337 0.102-0.513c0-0.176-0.035-0.35-0.102-0.513s-0.167-0.31-0.292-0.434c-0.25-0.248-0.588-0.388-0.94-0.388s-0.69 0.139-0.94 0.388zM15.050 11.763c-0.248 0.25-0.388 0.588-0.388 0.94s0.139 0.69 0.388 0.94c0.124 0.125 0.271 0.224 0.434 0.292s0.337 0.102 0.513 0.102c0.176 0 0.35-0.035 0.513-0.102s0.31-0.167 0.434-0.292c0.248-0.25 0.388-0.588 0.388-0.94s-0.139-0.69-0.388-0.94c-0.124-0.125-0.271-0.224-0.434-0.292s-0.337-0.103-0.513-0.103c-0.176 0-0.35 0.035-0.513 0.103s-0.31 0.167-0.434 0.292z"></path>
</svg>
