<!-- Generated by IcoMoon.io -->
<svg version="1.1" xmlns="http://www.w3.org/2000/svg" width="34" height="32" viewBox="0 0 34 32">
<title>phone</title>
<path fill="none" stroke-linejoin="round" stroke-linecap="round" stroke-miterlimit="4" stroke-width="1.641" stroke="#000" d="M20.198 27.841c0.477-0.275 0.824-0.732 0.964-1.268s0.062-1.109-0.216-1.592l-1.051-1.821c-0.279-0.483-0.736-0.837-1.27-0.983s-1.103-0.074-1.58 0.201c-3.598 2.077-5.701-1.564-6.752-3.385s-3.154-5.463 0.444-7.54c0.477-0.275 0.824-0.732 0.964-1.268s0.062-1.109-0.216-1.592l-1.051-1.821c-0.279-0.483-0.736-0.837-1.27-0.983s-1.103-0.074-1.58 0.201c-4.498 2.597-6.145 5.976-0.889 15.080s9.006 9.367 13.504 6.77z"></path>
<path fill="none" stroke-linejoin="round" stroke-linecap="round" stroke-miterlimit="4" stroke-width="1.641" stroke="#000" d="M29.773 20.322c0.956-3.662 0.423-7.571-1.48-10.869s-5.023-5.713-8.672-6.716M24.264 18.81c0.285-1.088 0.353-2.223 0.201-3.342s-0.521-2.199-1.087-3.178c-0.566-0.979-1.316-1.839-2.209-2.53s-1.911-1.2-2.995-1.497M18.785 17.288c0.191-0.733 0.084-1.515-0.296-2.175s-1.005-1.143-1.735-1.344"></path>
</svg>
