<!-- Generated by IcoMoon.io -->
<svg version="1.1" xmlns="http://www.w3.org/2000/svg" width="36" height="32" viewBox="0 0 36 32">
<title>team</title>
<path fill="none" stroke-linejoin="round" stroke-linecap="round" stroke-miterlimit="4" stroke-width="1.3913" stroke="#000" d="M12.354 10.764c-0.254 0.156-0.731 1.136-0.515 1.996 0.321 1.279 1.465 1.778 1.465 1.778s1.788 2.361 1.788 3.735c0 1.373 0 1.907-0.479 3.052s-9.887 2.519-10.286 9.273l27.536 0.001c-0.399-6.754-9.807-8.127-10.286-9.273s-0.479-1.679-0.479-3.052c0-1.373 1.788-3.735 1.788-3.735s1.143-0.499 1.465-1.778c0.216-0.86-0.262-1.84-0.515-1.996 0.678-2.068 2.031-9.198-5.665-9.455-0.034-0.005-0.068-0.004-0.102-0.003-7.745 0.258-6.391 7.388-5.713 9.456z"></path>
<path fill="none" stroke-linejoin="round" stroke-linecap="round" stroke-miterlimit="4" stroke-width="1.3913" stroke="#000" d="M0.702 26.098c2.259-1.584 5.076-2.199 5.306-2.748 0.379-0.907 0.379-1.329 0.379-2.416s-1.416-2.956-1.416-2.956c0 0-0.905-0.395-1.159-1.407-0.171-0.681 0.207-1.457 0.408-1.58-0.537-1.637-1.608-7.281 4.523-7.486 0.027-0.001 0.054-0.001 0.081 0.002 1.322 0.044 2.307 0.345 3.033 0.805 0.095 1.022 0.319 1.911 0.496 2.453-0.254 0.156-0.731 1.136-0.515 1.996 0.321 1.279 1.465 1.778 1.465 1.778s0.037 0.049 0.101 0.138c-0.033 0.117-0.065 0.223-0.095 0.316 0.201 0.124 0.579 0.899 0.408 1.58-0.254 1.012-1.159 1.407-1.159 1.407s-1.416 1.869-1.416 2.956c0 0.906 0 1.351 0.22 1.999-2.922 1.27-6.783 3.39-7.036 7.664l27.536 0.001c-0.258-4.354-4.259-6.472-7.199-7.734 0.203-0.621 0.203-1.065 0.203-1.948 0-1.087-1.416-2.956-1.416-2.956s-0.905-0.395-1.159-1.407c-0.171-0.681 0.207-1.457 0.408-1.58-0.013-0.039-0.026-0.079-0.039-0.123 0.137-0.196 0.225-0.312 0.225-0.312s1.143-0.499 1.465-1.778c0.216-0.86-0.262-1.84-0.515-1.996 0.185-0.563 0.419-1.502 0.508-2.576 0.712-0.402 1.652-0.661 2.88-0.702 0.027-0.001 0.054-0.002 0.081 0.002 6.093 0.203 5.021 5.847 4.485 7.484 0.201 0.124 0.579 0.899 0.408 1.58-0.254 1.012-1.159 1.407-1.159 1.407s-1.416 1.869-1.416 2.956c0 1.087 0 1.509 0.379 2.416 0.236 0.563 3.199 1.196 5.486 2.877v4.464l-15.822-0.001c0 0.006 0.001 0.012 0.001 0.018l-18.961-0.001v-4.593z"></path>
</svg>
