<!-- Generated by IcoMoon.io -->
<svg version="1.1" xmlns="http://www.w3.org/2000/svg" width="34" height="32" viewBox="0 0 34 32">
<title>Vector198</title>
<path d="M31.017 4.068c-1.809-1.814-4.208-2.922-6.763-3.122s-5.097 0.519-7.167 2.029c-2.172-1.616-4.875-2.348-7.566-2.050s-5.168 1.604-6.934 3.656c-1.766 2.052-2.689 4.696-2.583 7.401s1.233 5.269 3.153 7.177l10.601 10.618c0.888 0.874 2.083 1.363 3.329 1.363s2.441-0.49 3.329-1.363l10.601-10.618c1.993-2.005 3.112-4.718 3.112-7.545s-1.119-5.54-3.112-7.545zM28.61 16.803l-10.601 10.601c-0.121 0.122-0.264 0.218-0.422 0.285s-0.328 0.1-0.499 0.1-0.341-0.034-0.499-0.1c-0.158-0.066-0.302-0.163-0.422-0.285l-10.601-10.652c-1.339-1.369-2.088-3.207-2.088-5.121s0.75-3.753 2.088-5.121c1.364-1.347 3.204-2.102 5.121-2.102s3.757 0.755 5.121 2.102c0.159 0.16 0.348 0.287 0.556 0.374s0.431 0.131 0.657 0.131c0.225 0 0.448-0.045 0.657-0.131s0.397-0.214 0.556-0.374c1.364-1.347 3.204-2.102 5.121-2.102s3.757 0.755 5.121 2.102c1.357 1.351 2.131 3.179 2.157 5.093s-0.7 3.763-2.020 5.149v0.051z"></path>
</svg>
